<svg width="12" height="20" viewBox="0 0 12 20" fill="none" xmlns="http://www.w3.org/2000/svg">
<path d="M11.5673 11.0184L4.34563 19.1775C4.23589 19.3097 4.09836 19.4162 3.94282 19.4892C3.78728 19.5622 3.61756 19.6001 3.44572 19.6001C3.27389 19.6001 3.10417 19.5622 2.94863 19.4892C2.79309 19.4162 2.65556 19.3097 2.54582 19.1775L1.34595 17.8209C1.1042 17.537 0.971436 17.1763 0.971436 16.8034C0.971436 16.4305 1.1042 16.0698 1.34595 15.7859L6.4654 9.9993L1.34595 4.21432C1.1042 3.93042 0.971436 3.56971 0.971436 3.19683C0.971436 2.82394 1.1042 2.46324 1.34595 2.17934L2.54582 0.822683C2.65556 0.690458 2.79309 0.584042 2.94863 0.511003C3.10417 0.437965 3.27389 0.400097 3.44572 0.400097C3.61756 0.400097 3.78728 0.437965 3.94282 0.511003C4.09836 0.584042 4.23589 0.690458 4.34563 0.822683L11.5673 8.98181C11.8088 9.26454 11.9416 9.62422 11.9416 9.9961C11.9416 10.368 11.8088 10.7277 11.5673 11.0104V11.0184Z" fill="white"/>
</svg>
