<svg width="12" height="20" viewBox="0 0 12 20" fill="none" xmlns="http://www.w3.org/2000/svg">
<path d="M0.432744 8.98161L7.65437 0.822487C7.76411 0.690263 7.90164 0.583846 8.05718 0.510807C8.21272 0.437769 8.38244 0.399902 8.55428 0.399902C8.72611 0.399902 8.89583 0.437769 9.05137 0.510807C9.20691 0.583846 9.34444 0.690263 9.45418 0.822487L10.6541 2.17914C10.8958 2.46304 11.0286 2.82375 11.0286 3.19663C11.0286 3.56952 10.8958 3.93022 10.6541 4.21412L5.5346 10.0007L10.6541 15.7857C10.8958 16.0696 11.0286 16.4303 11.0286 16.8032C11.0286 17.1761 10.8958 17.5368 10.6541 17.8207L9.45418 19.1773C9.34444 19.3095 9.20691 19.416 9.05137 19.489C8.89583 19.562 8.72611 19.5999 8.55428 19.5999C8.38244 19.5999 8.21272 19.562 8.05718 19.489C7.90164 19.416 7.76411 19.3095 7.65437 19.1773L0.432744 11.0182C0.191173 10.7355 0.0584459 10.3758 0.0584459 10.0039C0.0584459 9.63202 0.191173 9.27235 0.432744 8.98961V8.98161Z" fill="white"/>
</svg>
