<?xml version="1.0" encoding="utf-8"?>
<!-- Generator: Adobe Illustrator 25.4.1, SVG Export Plug-In . SVG Version: 6.00 Build 0)  -->
<svg version="1.1" id="Capa_1" xmlns="http://www.w3.org/2000/svg" xmlns:xlink="http://www.w3.org/1999/xlink" x="0px" y="0px"
	 viewBox="0 0 36 34" style="enable-background:new 0 0 36 34;" xml:space="preserve">
<style type="text/css">
	.st0{fill:#20334E;}
</style>
<g>
	<path class="st0" d="M28.7,33.9h-2.1c-0.8,0-1.5-0.3-2-0.8c-0.5-0.5-0.8-1.2-0.8-2v-1.3H12.6v1.3c0,0.7-0.3,1.5-0.8,2
		c-0.5,0.5-1.2,0.8-2,0.8H7.6c-0.8,0-1.5-0.3-2-0.8c-0.5-0.5-0.8-1.2-0.8-2v-1.4c-0.5-0.1-0.9-0.4-1.3-0.7c-0.5-0.5-0.8-1.2-0.8-2
		v-9.3c-0.5,0-1-0.3-1.4-0.6c-0.4-0.4-0.7-1-0.7-1.6v-5c0-0.3,0.1-0.6,0.2-0.9C0.9,9.3,1,9.1,1.3,8.8C1.5,8.6,1.7,8.5,2,8.4
		c0.2-0.1,0.4-0.1,0.7-0.2V5.9c0-3.8,7.8-5.8,15.5-5.8c7.7,0,15.5,2,15.5,5.8v2.3c0.2,0,0.4,0.1,0.7,0.2c0.3,0.1,0.5,0.3,0.8,0.5
		c0.2,0.2,0.4,0.5,0.5,0.7c0.1,0.3,0.2,0.6,0.2,0.9v5c0,0.6-0.3,1.2-0.7,1.6c-0.4,0.4-0.9,0.6-1.4,0.6v9.7c0,0.3-0.1,0.6-0.2,0.9
		c-0.1,0.3-0.3,0.6-0.5,0.8c-0.2,0.2-0.5,0.4-0.8,0.5c-0.2,0.1-0.4,0.1-0.6,0.1v1.3c0,0.7-0.3,1.5-0.8,2
		C30.2,33.6,29.5,33.9,28.7,33.9z M11.1,28.3h14.1v2.8c0,0.3,0.1,0.6,0.4,0.9c0.3,0.2,0.6,0.4,1,0.4h2.1c0.4,0,0.7-0.1,1-0.4
		c0.2-0.2,0.4-0.6,0.4-0.9v-2.8h1.2c0.1,0,0.3,0,0.4-0.1c0.1,0,0.2-0.1,0.3-0.2c0.1-0.1,0.1-0.2,0.2-0.3c0-0.1,0.1-0.2,0.1-0.3V16.2
		h1.3c0.2,0,0.4-0.1,0.6-0.2c0.1-0.1,0.2-0.3,0.2-0.5v-5c0-0.1,0-0.2-0.1-0.3c0-0.1-0.1-0.2-0.2-0.2c-0.1-0.1-0.2-0.1-0.3-0.2
		c-0.1,0-0.2-0.1-0.3-0.1h-1.3V5.9c0-2-5.7-4.3-14-4.3c-8.2,0-14,2.3-14,4.3v3.8H2.9c-0.1,0-0.2,0-0.3,0.1c-0.1,0-0.2,0.1-0.3,0.2
		c-0.1,0.1-0.1,0.2-0.2,0.2s-0.1,0.2-0.1,0.3v5c0,0.2,0.1,0.4,0.2,0.5c0.2,0.1,0.4,0.2,0.6,0.2h1.3v10.8c0,0.3,0.1,0.6,0.4,0.9
		c0.3,0.2,0.6,0.4,1,0.4h0.8v2.8c0,0.3,0.1,0.6,0.4,0.9c0.3,0.2,0.6,0.4,1,0.4h2.1c0.4,0,0.7-0.1,1-0.4c0.2-0.2,0.4-0.6,0.4-0.9
		V28.3z M27.6,26.8c-0.6,0-1.1-0.2-1.6-0.5c-0.5-0.3-0.8-0.7-1.1-1.2c-0.2-0.5-0.3-1.1-0.2-1.6c0.1-0.5,0.4-1,0.8-1.4
		c0.4-0.4,0.9-0.6,1.5-0.7c0.5-0.1,1.1-0.1,1.6,0.2c0.5,0.2,1,0.6,1.3,1c0.3,0.5,0.5,1,0.5,1.5c0,0.7-0.3,1.4-0.8,2
		C29.1,26.5,28.4,26.8,27.6,26.8z M27.6,22.8c-0.1,0-0.2,0-0.3,0c-0.3,0.1-0.5,0.2-0.7,0.4c-0.2,0.2-0.3,0.4-0.4,0.6
		c0,0.2,0,0.5,0.1,0.7c0.1,0.2,0.3,0.4,0.5,0.6c0.5,0.3,1.3,0.3,1.7-0.2c0.2-0.2,0.4-0.6,0.4-0.9c0-0.2-0.1-0.5-0.2-0.7
		c-0.1-0.2-0.4-0.4-0.6-0.5C28,22.8,27.8,22.8,27.6,22.8z M8.7,26.8c-0.6,0-1.1-0.2-1.6-0.5c-0.5-0.3-0.8-0.7-1.1-1.2
		c-0.2-0.5-0.3-1.1-0.2-1.6c0.1-0.5,0.4-1,0.8-1.4c0.4-0.4,0.9-0.6,1.5-0.7c0.5-0.1,1.1-0.1,1.6,0.2c0.5,0.2,1,0.6,1.3,1
		c0.3,0.5,0.5,1,0.5,1.5c0,0.7-0.3,1.5-0.8,2C10.2,26.5,9.5,26.8,8.7,26.8z M8.7,22.8c-0.1,0-0.2,0-0.3,0c-0.3,0.1-0.5,0.2-0.7,0.4
		c-0.2,0.2-0.3,0.4-0.4,0.6c0,0.2,0,0.5,0.1,0.7c0.1,0.2,0.3,0.4,0.5,0.6c0.5,0.3,1.3,0.3,1.7-0.2C9.9,24.7,10,24.4,10,24
		c0-0.2-0.1-0.5-0.2-0.7c-0.1-0.2-0.4-0.4-0.6-0.5C9.1,22.8,8.9,22.8,8.7,22.8z M26.6,19.8H9.7c-0.8,0-1.5-0.3-2-0.8s-0.8-1.2-0.8-2
		V8.9c0-0.7,0.3-1.5,0.8-2c0.5-0.5,1.3-0.8,2-0.8h16.8c0.8,0,1.5,0.3,2,0.8c0.5,0.5,0.8,1.2,0.8,2V17c0,0.7-0.3,1.5-0.8,2
		C28.1,19.5,27.3,19.8,26.6,19.8z M9.7,7.7c-0.4,0-0.7,0.1-1,0.4C8.5,8.3,8.4,8.6,8.4,8.9V17c0,0.3,0.1,0.6,0.4,0.9
		c0.3,0.2,0.6,0.4,1,0.4h16.8c0.4,0,0.7-0.1,1-0.4c0.2-0.2,0.4-0.5,0.4-0.9V8.9c0-0.3-0.1-0.6-0.4-0.9c-0.3-0.2-0.6-0.4-1-0.4H9.7z"
		/>
</g>
</svg>
