<?xml version="1.0" encoding="utf-8"?>
<!-- Generator: Adobe Illustrator 25.4.1, SVG Export Plug-In . SVG Version: 6.00 Build 0)  -->
<svg version="1.1" id="Capa_1" xmlns="http://www.w3.org/2000/svg" xmlns:xlink="http://www.w3.org/1999/xlink" x="0px" y="0px"
	 viewBox="0 0 48 38" style="enable-background:new 0 0 48 38;" xml:space="preserve">
<style type="text/css">
	.st0{fill:#20334E;}
</style>
<g>
	<path class="st0" d="M40.4,37.9c-0.3,0-0.5,0-0.8-0.1l-2.2-0.6c-0.4-0.1-0.7-0.3-1.1-0.5c-0.3-0.2-0.6-0.5-0.8-0.9
		c-0.2-0.3-0.3-0.7-0.4-1.1c-0.1-0.4,0-0.8,0.1-1.2l0.4-1.4l-16.1-4.3l-0.4,1.4c-0.1,0.4-0.3,0.7-0.5,1.1c-0.2,0.3-0.5,0.6-0.9,0.8
		c-0.3,0.2-0.7,0.3-1.1,0.4c-0.4,0-0.8,0-1.2-0.1l-2.2-0.6c-0.4-0.1-0.7-0.3-1.1-0.5c-0.3-0.2-0.6-0.5-0.8-0.9
		c-0.2-0.3-0.3-0.7-0.4-1.1c-0.1-0.4,0-0.8,0.1-1.2l0.9-3.4c-0.1-0.2-0.2-0.4-0.2-0.6c-0.3-0.9-0.3-1.9,0-2.8l0.9-3.3
		c0.2-0.8,0.6-1.5,1.1-2.1c0.5-0.6,1.2-1.1,1.9-1.4c0.4-0.2,0.8-0.3,1.2-0.3l3.4-4.5c0.8-1,1.8-1.9,2.9-2.5C23.6,6.2,24,6,24.4,5.9
		c0.8-0.3,1.6-0.4,2.5-0.5c0.9,0,1.7,0.1,2.6,0.3L38.2,8c0.8,0.2,1.6,0.6,2.4,1c1.1,0.7,2,1.6,2.7,2.7c0.7,1.1,1.1,2.3,1.3,3.6
		l0.7,5.5c0.7,0.6,1.3,1.4,1.6,2.2c0.4,1,0.4,2.1,0.1,3.2l0,0l-0.9,3.3c-0.2,0.9-0.8,1.8-1.5,2.4c-0.2,0.1-0.3,0.3-0.5,0.4l-0.9,3.4
		c-0.1,0.4-0.3,0.7-0.5,1c-0.2,0.3-0.5,0.6-0.9,0.8c-0.3,0.2-0.7,0.3-1.1,0.4C40.6,37.9,40.5,37.9,40.4,37.9z M18.5,26l19,5L36.7,34
		c-0.1,0.2-0.1,0.4,0,0.6c0,0.2,0.1,0.4,0.2,0.5c0.1,0.2,0.2,0.3,0.4,0.4c0.2,0.1,0.3,0.2,0.5,0.3l2.2,0.6c0.2,0.1,0.4,0.1,0.6,0
		c0.2,0,0.4-0.1,0.6-0.2c0.2-0.1,0.3-0.2,0.4-0.4c0.1-0.2,0.2-0.3,0.3-0.5l1.1-3.9l0.2-0.2c0.2-0.1,0.4-0.3,0.5-0.4
		c0.5-0.5,0.9-1.1,1-1.7l0.9-3.3c0.2-0.8,0.2-1.5-0.1-2.2c-0.3-0.7-0.7-1.3-1.3-1.7l-0.3-0.2l-0.7-6.2c-0.1-1-0.5-2.1-1-3
		c-0.6-0.9-1.3-1.7-2.2-2.2c-0.6-0.4-1.3-0.7-2-0.9l-8.7-2.3C28.4,7,27.7,6.9,27,6.9c-0.7,0-1.4,0.2-2.1,0.4c-0.3,0.1-0.7,0.3-1,0.4
		c-1,0.5-1.8,1.2-2.4,2.1l-3.8,5l-0.3,0c-0.4,0-0.7,0.1-1.1,0.3c-0.5,0.2-1,0.6-1.4,1c-0.4,0.4-0.6,0.9-0.8,1.5l-0.9,3.3
		c-0.2,0.7-0.2,1.3,0,2c0.1,0.2,0.1,0.4,0.2,0.6l0.1,0.3l-1.1,3.9c-0.1,0.2-0.1,0.4,0,0.6c0,0.2,0.1,0.4,0.2,0.6
		c0.1,0.2,0.2,0.3,0.4,0.4c0.2,0.1,0.3,0.2,0.5,0.3l2.2,0.6c0.2,0.1,0.4,0.1,0.6,0c0.2,0,0.4-0.1,0.6-0.2c0.2-0.1,0.3-0.2,0.4-0.4
		c0.1-0.2,0.2-0.3,0.3-0.5L18.5,26z M40.5,28.7c-0.3,0-0.5,0-0.8-0.1l-0.5-0.1c-1.1-0.3-2.4-0.6-2.9-1.5c-0.2-0.4-0.3-0.8-0.2-1.3
		c0.5-1.7,3.3-3.4,5.1-2.9c0.4,0.1,0.7,0.3,1.1,0.5c0.3,0.2,0.6,0.5,0.8,0.9c0.2,0.3,0.3,0.7,0.4,1.1c0.1,0.4,0,0.8-0.1,1.2
		s-0.3,0.7-0.5,1c-0.2,0.3-0.5,0.6-0.9,0.8c-0.3,0.2-0.7,0.3-1.1,0.4C40.8,28.7,40.7,28.7,40.5,28.7z M40.6,24.2c-1,0-2.8,1.1-3,1.9
		c0,0.1,0,0.1,0,0.1c0.2,0.3,1.3,0.6,1.9,0.8c0.2,0,0.4,0.1,0.5,0.1c0.2,0.1,0.4,0.1,0.6,0c0.2,0,0.4-0.1,0.6-0.2
		c0.2-0.1,0.3-0.2,0.4-0.4c0.1-0.2,0.2-0.3,0.3-0.5c0.1-0.2,0.1-0.4,0-0.6c0-0.2-0.1-0.4-0.2-0.6c-0.1-0.2-0.2-0.3-0.4-0.4
		c-0.2-0.1-0.3-0.2-0.5-0.3l0,0C40.8,24.2,40.7,24.2,40.6,24.2z M7.3,25.3c-0.3,0-0.5-0.1-0.7-0.2C6.4,25,6.2,24.8,6,24.5
		C5.9,24.3,5.9,24,6,23.7L7,18.4l-5.4-0.5c-0.3,0-0.6-0.1-0.8-0.3c-0.2-0.2-0.4-0.4-0.4-0.7c-0.1-0.3-0.1-0.6,0.1-0.8
		c0.1-0.3,0.3-0.5,0.5-0.7l4.5-3L2.1,8.3C1.9,8,1.8,7.8,1.7,7.5c0-0.3,0-0.6,0.2-0.8c0.2-0.2,0.4-0.4,0.6-0.6C2.8,6,3.1,6,3.4,6
		l5.3,1.1l0.5-5.3c0-0.3,0.1-0.6,0.3-0.8c0.2-0.2,0.4-0.4,0.7-0.4c0.3-0.1,0.6-0.1,0.8,0.1c0.3,0.1,0.5,0.3,0.7,0.5l3,4.5L19,2.2
		c0.2-0.2,0.5-0.3,0.8-0.3c0.3,0,0.6,0,0.8,0.2c0.2,0.1,0.4,0.4,0.6,0.6c0.1,0.3,0.1,0.6,0.1,0.8l-0.8,4.1l-0.1,0.2
		C20,8,19.9,8.2,19.7,8.4l-3.2,4.2l-0.3,0.1c-1,0.3-2,0.8-2.7,1.5c-0.8,0.7-1.3,1.7-1.6,2.7l-0.9,3.3c-0.2,0.7-0.2,1.4-0.2,2.1
		l0,0.4L8.2,25c-0.2,0.2-0.5,0.3-0.8,0.3C7.4,25.3,7.4,25.3,7.3,25.3z M2.1,16.5l5.2,0.5c0.2,0,0.4,0.1,0.6,0.2
		c0.2,0.1,0.3,0.2,0.4,0.4c0.1,0.2,0.2,0.3,0.2,0.5c0,0.2,0,0.4,0,0.6l-1,5.1l1.9-1.6c0-0.8,0-1.5,0.2-2.3l0.9-3.3
		c0.3-1.3,1-2.4,2-3.3c0.9-0.9,2-1.5,3.1-1.9l2.9-3.8C18.7,7.3,18.8,7.1,19,7l0.7-3.4l-4,3.3c-0.1,0.1-0.3,0.2-0.5,0.3
		c-0.2,0.1-0.4,0.1-0.6,0c-0.2,0-0.4-0.1-0.5-0.2c-0.2-0.1-0.3-0.2-0.4-0.4l-2.9-4.3l-0.5,5.2c0,0.2-0.1,0.4-0.2,0.5
		C9.9,8.1,9.8,8.2,9.6,8.3C9.5,8.5,9.3,8.5,9.1,8.6c-0.2,0-0.4,0-0.6,0l-5.1-1l3.3,4C6.9,11.7,7,11.9,7,12.1c0.1,0.2,0.1,0.4,0,0.6
		c0,0.2-0.1,0.4-0.2,0.5c-0.1,0.2-0.2,0.3-0.4,0.4L2.1,16.5z M7,18.3L7,18.3L7,18.3L7,18.3z M20.5,23.3c-0.7,0-1.4-0.2-2.1-0.4
		l-0.5-0.1c-0.4-0.1-0.7-0.2-1.1-0.5c-0.3-0.2-0.6-0.5-0.8-0.9c-0.2-0.3-0.3-0.7-0.4-1.1c0-0.4,0-0.8,0.1-1.2c0.1-0.3,0.2-0.7,0.5-1
		c0.2-0.3,0.5-0.6,0.9-0.8c0.4-0.2,0.7-0.3,1.2-0.4c0.4,0,0.8,0,1.2,0.1c0.8,0.2,1.7,1,2.3,2.1c0.3,0.5,0.9,1.8,0.6,3
		c-0.1,0.5-0.4,0.8-0.8,1C21.2,23.2,20.9,23.3,20.5,23.3z M18.5,18.3c0,0-0.1,0-0.1,0c-0.2,0-0.4,0.1-0.6,0.2
		c-0.2,0.1-0.3,0.2-0.4,0.4c-0.1,0.2-0.2,0.3-0.2,0.5c-0.1,0.3-0.1,0.5-0.1,0.7c0,0.2,0.1,0.4,0.2,0.5c0.1,0.2,0.2,0.3,0.4,0.4
		c0.2,0.1,0.3,0.2,0.5,0.2l0.6,0.2c0.6,0.2,1.7,0.5,2.1,0.3c0,0,0,0,0.1-0.1c0.1-0.3,0-1-0.5-1.8c-0.5-0.8-1-1.3-1.4-1.4l0,0
		C18.8,18.4,18.7,18.3,18.5,18.3z M40.7,20.7L21,15.5l2.9-3.9c0.5-0.7,1.2-1.2,2-1.4c0.8-0.3,1.6-0.3,2.4-0.1l8.7,2.3
		c0.8,0.2,1.5,0.7,2.1,1.3c0.5,0.6,0.9,1.4,1,2.2L40.7,20.7z M23.6,14.6l15.4,4.1L38.6,16c-0.1-0.5-0.3-1-0.6-1.4
		c-0.3-0.4-0.8-0.7-1.3-0.8L28,11.5c-0.5-0.1-1.1-0.1-1.6,0.1c-0.5,0.2-0.9,0.5-1.3,0.9L23.6,14.6z"/>
</g>
</svg>
