<?xml version="1.0" encoding="utf-8"?>
<!-- Generator: Adobe Illustrator 25.4.1, SVG Export Plug-In . SVG Version: 6.00 Build 0)  -->
<svg version="1.1" id="Capa_1" xmlns="http://www.w3.org/2000/svg" xmlns:xlink="http://www.w3.org/1999/xlink" x="0px" y="0px"
	 viewBox="0 0 22 22" style="enable-background:new 0 0 22 22;" xml:space="preserve">
<style type="text/css">
	.st0{fill:#20334E;}
</style>
<g>
	<path class="st0" d="M11,16.5c-0.4,0-0.7,0-1.1-0.1c-1.1-0.2-2.1-0.7-2.8-1.5c-0.8-0.8-1.3-1.8-1.5-2.8S5.5,9.9,5.9,8.9
		c0.4-1,1.1-1.9,2-2.5c1.5-1,3.5-1.2,5.2-0.5c0.7,0.3,1.3,0.7,1.8,1.2c0.5,0.5,0.9,1.1,1.2,1.8c0.3,0.7,0.4,1.4,0.4,2.1
		c0,1.1-0.3,2.2-0.9,3.1c-0.6,0.9-1.5,1.6-2.5,2C12.4,16.4,11.7,16.5,11,16.5z M11,7.5c-0.7,0-1.4,0.2-2,0.6C8.4,8.4,8,9,7.7,9.6
		c-0.3,0.6-0.3,1.4-0.2,2s0.5,1.3,1,1.8c0.5,0.5,1.1,0.8,1.8,1c0.7,0.1,1.4,0.1,2-0.2c0.7-0.3,1.2-0.7,1.6-1.3
		c0.4-0.6,0.6-1.3,0.6-2c0-0.5-0.1-0.9-0.3-1.4c-0.2-0.4-0.4-0.8-0.8-1.2c-0.3-0.3-0.7-0.6-1.1-0.8C11.9,7.5,11.5,7.5,11,7.5z"/>
</g>
<g>
	<path class="st0" d="M11,4.7c-0.6,0-1-0.4-1-1V1c0-0.6,0.4-1,1-1s1,0.4,1,1v2.7C12,4.3,11.6,4.7,11,4.7z"/>
</g>
<g>
	<path class="st0" d="M11,22c-0.6,0-1-0.4-1-1v-2.7c0-0.6,0.4-1,1-1s1,0.4,1,1V21C12,21.6,11.6,22,11,22z"/>
</g>
<g>
	<path class="st0" d="M6.1,7.1C5.8,7.1,5.6,7,5.4,6.8L3.4,4.8C3,4.4,3,3.8,3.4,3.4s1-0.4,1.4,0l1.9,1.9c0.4,0.4,0.4,1,0,1.4
		C6.6,7,6.3,7.1,6.1,7.1z"/>
</g>
<g>
	<path class="st0" d="M17.9,18.9c-0.3,0-0.5-0.1-0.7-0.3l-1.9-1.9c-0.4-0.4-0.4-1,0-1.4s1-0.4,1.4,0l1.9,1.9c0.4,0.4,0.4,1,0,1.4
		C18.4,18.8,18.1,18.9,17.9,18.9z"/>
</g>
<g>
	<path class="st0" d="M3.7,12H1c-0.6,0-1-0.4-1-1s0.4-1,1-1h2.7c0.6,0,1,0.4,1,1S4.3,12,3.7,12z"/>
</g>
<g>
	<path class="st0" d="M21,12h-2.7c-0.6,0-1-0.4-1-1s0.4-1,1-1H21c0.6,0,1,0.4,1,1S21.6,12,21,12z"/>
</g>
<g>
	<path class="st0" d="M4.1,18.9c-0.3,0-0.5-0.1-0.7-0.3c-0.4-0.4-0.4-1,0-1.4l1.9-1.9c0.4-0.4,1-0.4,1.4,0s0.4,1,0,1.4l-1.9,1.9
		C4.6,18.8,4.4,18.9,4.1,18.9z"/>
</g>
<g>
	<path class="st0" d="M15.9,7.1c-0.3,0-0.5-0.1-0.7-0.3c-0.4-0.4-0.4-1,0-1.4l1.9-1.9c0.4-0.4,1-0.4,1.4,0s0.4,1,0,1.4l-1.9,1.9
		C16.4,7,16.2,7.1,15.9,7.1z"/>
</g>
</svg>
