<svg width="12" height="7" viewBox="0 0 12 7" fill="none" xmlns="http://www.w3.org/2000/svg">
<path d="M6.85994 6.55693L11.1166 1.28562C11.2027 1.18206 11.25 1.05045 11.25 0.914401C11.25 0.77835 11.2027 0.646747 11.1166 0.543182C11.0083 0.419954 10.875 0.32242 10.7262 0.257378C10.5773 0.192336 10.4163 0.161351 10.2546 0.166583L1.74543 0.166583C1.58366 0.161351 1.42273 0.192336 1.27384 0.257378C1.12496 0.32242 0.99171 0.419954 0.883383 0.543182C0.797287 0.646747 0.75 0.77835 0.75 0.914401C0.75 1.05045 0.797287 1.18206 0.883383 1.28562L5.14216 6.55693C5.25239 6.67558 5.38597 6.76888 5.53404 6.83065C5.68211 6.89242 5.84129 6.92125 6.00105 6.91524C6.16081 6.92125 6.31999 6.89242 6.46806 6.83065C6.61613 6.76888 6.74971 6.67558 6.85994 6.55693Z" fill="white"/>
</svg>
