<svg width="16" height="16" viewBox="0 0 16 16" fill="none" xmlns="http://www.w3.org/2000/svg">
<path d="M8 1.5C4.41785 1.5 1.5 4.41785 1.5 8C1.5 11.5822 4.41785 14.5 8 14.5C11.5822 14.5 14.5 11.5822 14.5 8C14.5 4.41785 11.5822 1.5 8 1.5ZM8 2.8C10.8796 2.8 13.2 5.12042 13.2 8C13.2 10.6094 11.2925 12.7535 8.79219 13.134V9.5501H10.3055L10.5429 8.0127H8.79219V7.17226C8.79219 6.53332 9.00034 5.96621 9.59834 5.96621H10.5581V4.62432C10.3891 4.60157 10.0324 4.55195 9.3584 4.55195C7.9505 4.55195 7.12529 5.29555 7.12529 6.98945V8.0127H5.67803V9.5501H7.12529V13.1213C4.66569 12.7065 2.8 10.5807 2.8 8C2.8 5.12042 5.12042 2.8 8 2.8Z" fill="#FF742B"/>
</svg>
