<?xml version="1.0" encoding="utf-8"?>
<!-- Generator: Adobe Illustrator 25.4.1, SVG Export Plug-In . SVG Version: 6.00 Build 0)  -->
<svg version="1.1" id="Capa_1" xmlns="http://www.w3.org/2000/svg" xmlns:xlink="http://www.w3.org/1999/xlink" x="0px" y="0px"
	 viewBox="0 0 15 12" style="enable-background:new 0 0 15 12;" xml:space="preserve">
<style type="text/css">
	.st0{fill:#FFFFFF;}
</style>
<g>
	<path class="st0" d="M12.4,11.2H2.1c-0.5,0-0.9-0.2-1.3-0.5c-0.3-0.3-0.5-0.8-0.5-1.3V2.5c0-0.5,0.2-0.9,0.5-1.3
		c0.3-0.3,0.8-0.5,1.3-0.5h10.3c0.2,0,0.5,0,0.7,0.1c0.2,0.1,0.4,0.2,0.6,0.4c0.2,0.2,0.3,0.4,0.4,0.6c0.1,0.2,0.1,0.4,0.1,0.7v6.9
		c0,0.2,0,0.5-0.1,0.7c-0.1,0.2-0.2,0.4-0.4,0.6c-0.2,0.2-0.4,0.3-0.6,0.4C12.9,11.1,12.7,11.2,12.4,11.2z M2.1,1.7
		c-0.2,0-0.4,0.1-0.6,0.2C1.4,2.1,1.3,2.3,1.3,2.5v6.9c0,0.2,0.1,0.4,0.2,0.6c0.1,0.1,0.4,0.2,0.6,0.2h10.3c0.1,0,0.2,0,0.3-0.1
		c0.1,0,0.2-0.1,0.3-0.2c0.1-0.1,0.1-0.2,0.2-0.3c0-0.1,0.1-0.2,0.1-0.3V2.5c0-0.1,0-0.2-0.1-0.3c0-0.1-0.1-0.2-0.2-0.3
		c-0.1-0.1-0.2-0.1-0.3-0.2c-0.1,0-0.2-0.1-0.3-0.1H2.1z M12.5,9.4H2v-2l1.6-1.6c0.3-0.3,0.9-0.3,1.2,0l0.7,0.7l3.3-3.3
		c0.3-0.3,0.9-0.3,1.2,0l2.5,2.5V9.4z M3,8.4h8.5V6.1L9.4,4.1L5.5,7.9L4.3,6.6L3,7.9V8.4z M4.4,6.5L4.4,6.5C4.4,6.5,4.4,6.5,4.4,6.5
		z M3.8,5.6c-0.1,0-0.2,0-0.3,0C3.1,5.5,2.8,5.3,2.6,5C2.3,4.8,2.1,4.5,2.1,4.1C2,3.8,2,3.4,2.2,3.1c0.1-0.3,0.4-0.6,0.7-0.8
		c0.7-0.5,1.7-0.4,2.3,0.2c0.3,0.3,0.5,0.8,0.5,1.3c0,0.4-0.1,0.7-0.3,1C5.1,5.1,4.8,5.3,4.5,5.4C4.3,5.5,4.1,5.6,3.8,5.6z M3.8,3
		C3.7,3,3.5,3,3.4,3.1C3.3,3.2,3.2,3.3,3.1,3.5S3,3.8,3.1,3.9s0.1,0.3,0.2,0.4c0.1,0.1,0.3,0.2,0.4,0.2c0.2,0,0.3,0,0.5,0
		c0.1-0.1,0.3-0.2,0.4-0.3s0.1-0.3,0.1-0.4c0-0.2-0.1-0.4-0.2-0.6C4.2,3.1,4,3,3.8,3z"/>
</g>
</svg>
