<?xml version="1.0" encoding="utf-8"?>
<!-- Generator: Adobe Illustrator 25.4.1, SVG Export Plug-In . SVG Version: 6.00 Build 0)  -->
<svg version="1.1" id="Capa_1" xmlns="http://www.w3.org/2000/svg" xmlns:xlink="http://www.w3.org/1999/xlink" x="0px" y="0px"
	 viewBox="0 0 24 24" style="enable-background:new 0 0 24 24;" xml:space="preserve">
<style type="text/css">
	.st0{fill-rule:evenodd;clip-rule:evenodd;fill:#FFFFFF;}
</style>
<path class="st0" d="M20,23.7c0.1,0,0.2,0,0.3-0.1l2.2-1.8c0.1-0.1,0.2-0.2,0.2-0.4c0-0.1,0-0.3-0.1-0.4l-5.5-6.9
	c1.1-1.5,1.7-3.3,1.7-5.1c0-1.8-0.6-3.6-1.7-5.1c-1.1-1.4-2.7-2.5-4.4-2.9S9,0.6,7.3,1.4s-3,2-3.9,3.6c-0.9,1.6-1.2,3.5-0.9,5.3
	c0.3,1.8,1.1,3.5,2.4,4.8s3,2.1,4.8,2.3c0.3,0,0.6,0,0.9,0c1.2,0,2.4-0.3,3.4-0.8l5.5,7c0.1,0.1,0.1,0.1,0.2,0.1S19.9,23.7,20,23.7z
	 M15.7,15.5c0.2-0.2,0.4-0.4,0.6-0.6l5.1,6.4l-1.4,1.1L15,16C15.2,15.8,15.5,15.7,15.7,15.5L15.7,15.5z M14.3,5.8
	c-0.7-0.9-1.7-1.5-2.8-1.7c-1.1-0.2-2.2,0-3.2,0.5C7.3,5.1,6.5,6,6.1,7.1c-0.4,1.1-0.5,2.2-0.2,3.3c0.3,1.1,1,2,1.9,2.7
	c0.9,0.6,2.1,0.9,3.2,0.8c1.1-0.1,2.2-0.6,3-1.4c0.8-0.8,1.3-1.9,1.4-3c0.1-0.7,0-1.3-0.2-1.9C15,6.9,14.7,6.3,14.3,5.8z M11.9,1.8
	C13.5,2.2,14.9,3,16,4.3c0.6,0.7,1,1.6,1.3,2.5c0.3,0.9,0.4,1.9,0.3,2.8c-0.2,1.7-0.9,3.2-2.1,4.4c-1.2,1.2-2.7,1.9-4.3,2.1
	c-1.6,0.2-3.3-0.3-4.6-1.2C5.2,14,4.2,12.6,3.7,11S3.3,7.7,4,6.2c0.6-1.5,1.8-2.8,3.2-3.6S10.3,1.5,11.9,1.8z M9.9,14.8
	c1.5,0.2,3.1-0.3,4.3-1.2c0.6-0.5,1.1-1.1,1.5-1.8c0.4-0.7,0.6-1.4,0.7-2.2c0.1-0.8,0-1.6-0.2-2.3c-0.2-0.8-0.6-1.5-1.1-2.1
	c-0.5-0.6-1.1-1.1-1.8-1.5C12.6,3.3,11.8,3,11.1,3c-0.2,0-0.4,0-0.6,0C9.1,3,7.8,3.4,6.8,4.3c-1.2,1-1.9,2.4-2.1,4
	C4.5,9.8,5,11.4,6,12.6C6.9,13.8,8.3,14.6,9.9,14.8z"/>
</svg>
