<svg width="21" height="23" viewBox="0 0 21 23" fill="none" xmlns="http://www.w3.org/2000/svg">
<path fill-rule="evenodd" clip-rule="evenodd" d="M18.1628 22.9988C18.2917 23 18.4168 22.9562 18.516 22.8751L20.7898 21.0581C20.9045 20.9634 20.9786 20.8293 20.997 20.683C21.0084 20.538 20.9635 20.3942 20.8715 20.2805L15.1534 13.3474C16.2859 11.8855 16.8944 10.0951 16.8837 8.2563C16.8731 6.41749 16.2439 4.63404 15.0945 3.18499C13.9451 1.73594 12.3405 0.703055 10.5317 0.247943C8.72286 -0.207169 6.81189 -0.0588275 5.09777 0.669756C3.38365 1.39834 1.96311 2.66606 1.0584 4.27455C0.153694 5.88305 -0.184128 7.74157 0.0977914 9.55932C0.379711 11.3771 1.26547 13.0515 2.61647 14.3206C3.96747 15.5897 5.70749 16.3819 7.56427 16.5731C7.85892 16.6055 8.15515 16.6218 8.45161 16.622C9.67795 16.6232 10.8896 16.3592 12.001 15.8486L17.7264 22.8148C17.7803 22.8759 17.8476 22.9242 17.9232 22.9561C17.9987 22.988 18.0807 23.0025 18.1628 22.9988ZM13.7567 14.7777C13.9842 14.5974 14.2019 14.4054 14.4091 14.2027L19.6485 20.5636L18.2445 21.6892L12.9905 15.3081C13.2548 15.1421 13.5092 14.9611 13.7523 14.7662L13.7567 14.7777ZM12.2847 5.08641C11.5469 4.20326 10.5228 3.59998 9.38636 3.37904C8.2499 3.1581 7.07116 3.33314 6.05038 3.87442C5.02961 4.4157 4.22976 5.28984 3.78671 6.34833C3.34367 7.40682 3.28475 8.58438 3.61998 9.68097C3.9552 10.7776 4.66389 11.7255 5.62565 12.3639C6.58741 13.0022 7.74292 13.2915 8.89589 13.1826C10.0488 13.0737 11.1282 12.5734 11.9504 11.7666C12.7727 10.9598 13.2873 9.89636 13.4067 8.75684C13.4738 8.10207 13.4092 7.44064 13.2166 6.81068C13.024 6.18073 12.7073 5.59471 12.2847 5.08641ZM9.79902 1.12772C11.4573 1.44946 12.9515 2.328 14.028 3.61408C14.6447 4.35429 15.1068 5.20768 15.3878 6.12505C15.6688 7.04243 15.7631 8.00564 15.6652 8.95915C15.4909 10.6186 14.7401 12.1673 13.5403 13.3422C12.3405 14.517 10.7657 15.2456 9.08336 15.4042C7.40105 15.5627 5.71502 15.1414 4.3117 14.2119C2.90838 13.2823 1.87431 11.9018 1.38518 10.3049C0.896046 8.708 0.982009 6.99318 1.62846 5.45175C2.27492 3.91032 3.442 2.63736 4.93143 1.84912C6.42086 1.06088 8.14079 0.805982 9.79902 1.12772ZM7.71517 14.0651C9.29095 14.2357 10.8714 13.7866 12.1141 12.8151C12.7329 12.3223 13.2487 11.7139 13.6287 11.0245C14.0086 10.3352 14.247 9.57858 14.3301 8.7981C14.4132 8.01762 14.3394 7.22862 14.1128 6.47637C13.8863 5.72412 13.5116 5.02342 13.0102 4.41447C12.5124 3.80597 11.8971 3.30127 11.2 2.92974C10.5028 2.55821 9.73777 2.32726 8.94936 2.25034C8.73325 2.23677 8.5165 2.23677 8.30039 2.25034C6.91979 2.24763 5.58104 2.71811 4.51274 3.58145C3.29524 4.58367 2.52676 6.01908 2.37377 7.57671C2.22079 9.13435 2.69561 10.6888 3.69539 11.9032C4.69517 13.1177 6.13939 13.8944 7.71517 14.0651Z" fill="#20334E"/>
</svg>
