<?xml version="1.0" encoding="utf-8"?>
<!-- Generator: Adobe Illustrator 25.4.1, SVG Export Plug-In . SVG Version: 6.00 Build 0)  -->
<svg version="1.1" id="Capa_1" xmlns="http://www.w3.org/2000/svg" xmlns:xlink="http://www.w3.org/1999/xlink" x="0px" y="0px"
	 viewBox="0 0 25 24" style="enable-background:new 0 0 25 24;" xml:space="preserve">
<style type="text/css">
	.st0{clip-path:url(#SVGID_00000078043483146942300530000005960152485062803362_);}
	.st1{fill:#8CA634;}
</style>
<g>
	<defs>
		<rect id="SVGID_1_" x="0.8" y="0.2" width="23.4" height="23.4"/>
	</defs>
	<clipPath id="SVGID_00000143595819837775344010000007640008536648753826_">
		<use xlink:href="#SVGID_1_"  style="overflow:visible;"/>
	</clipPath>
	<g style="clip-path:url(#SVGID_00000143595819837775344010000007640008536648753826_);">
		<g>
			<path class="st1" d="M1.6,23.7l-0.5-0.4c-0.2-0.3-0.4-0.6-0.3-1l1-5.6L14.2,4.4l5.9,5.9L7.6,22.7L1.6,23.7z M3.6,17.8L3,21.4
				l3.7-0.6l10.5-10.5l-3-3L3.6,17.8z M20.3,10l-5.9-5.9l2.5-2.5c0.9-0.9,2.2-0.9,3.1,0l2.7,2.7c0.4,0.4,0.6,1,0.6,1.5
				c0,0.6-0.2,1.1-0.6,1.6L20.3,10z M17.3,4.2l3,3l1.1-1.1c0,0,0.1-0.1,0.1-0.1c0,0,0-0.1,0-0.1l-2.8-2.8c-0.1-0.1-0.2-0.1-0.3,0
				L17.3,4.2z"/>
		</g>
	</g>
</g>
</svg>
