<svg width="16" height="16" viewBox="0 0 16 16" fill="none" xmlns="http://www.w3.org/2000/svg">
<path d="M5.25 1.5C3.18225 1.5 1.5 3.18225 1.5 5.25V11.25C1.5 13.3177 3.18225 15 5.25 15H11.25C13.3177 15 15 13.3177 15 11.25V5.25C15 3.18225 13.3177 1.5 11.25 1.5H5.25ZM5.25 2.85H11.25C12.4905 2.85 13.65 4.0095 13.65 5.25V11.25C13.65 12.4905 12.4905 13.65 11.25 13.65H5.25C4.0095 13.65 2.85 12.4905 2.85 11.25V5.25C2.85 4.0095 4.0095 2.85 5.25 2.85ZM12 3.75C11.8011 3.75 11.6103 3.82902 11.4697 3.96967C11.329 4.11032 11.25 4.30109 11.25 4.5C11.25 4.69891 11.329 4.88968 11.4697 5.03033C11.6103 5.17098 11.8011 5.25 12 5.25C12.1989 5.25 12.3897 5.17098 12.5303 5.03033C12.671 4.88968 12.75 4.69891 12.75 4.5C12.75 4.30109 12.671 4.11032 12.5303 3.96967C12.3897 3.82902 12.1989 3.75 12 3.75ZM8.25 4.74C6.18225 4.74 4.74 6.18225 4.74 8.25C4.74 10.3177 6.18225 11.76 8.25 11.76C10.3177 11.76 11.76 10.3177 11.76 8.25C11.76 6.18225 10.3177 4.74 8.25 4.74ZM8.25 6C9.4905 6 10.5 7.0095 10.5 8.25C10.5 9.4905 9.4905 10.5 8.25 10.5C7.0095 10.5 6 9.4905 6 8.25C6 7.0095 7.0095 6 8.25 6Z" fill="#FF742B"/>
</svg>
