<?xml version="1.0" encoding="utf-8"?>
<!-- Generator: Adobe Illustrator 25.4.1, SVG Export Plug-In . SVG Version: 6.00 Build 0)  -->
<svg version="1.1" id="Capa_1" xmlns="http://www.w3.org/2000/svg" xmlns:xlink="http://www.w3.org/1999/xlink" x="0px" y="0px"
	 viewBox="0 0 17 16" style="enable-background:new 0 0 17 16;" xml:space="preserve">
<style type="text/css">
	.st0{fill:#20334E;}
</style>
<g>
	<path class="st0" d="M8.7,15.8c-0.6,0-1.2-0.1-1.8-0.2c-1.5-0.3-2.9-1-4-2.1c-1.1-1-1.9-2.4-2.2-3.8C0.4,8.2,0.5,6.7,1,5.3
		c0.5-1.4,1.5-2.6,2.7-3.5c1.2-0.9,2.7-1.4,4.2-1.6c0.3,0,0.6,0.1,0.7,0.4c0.1,0.3,0.1,0.6-0.1,0.8c-0.7,0.9-1,2-1,3.1
		c0.1,1.1,0.6,2.2,1.4,3c0.9,0.8,2,1.3,3.2,1.4C13.5,9,14.7,8.7,15.7,8c0.2-0.2,0.6-0.2,0.8,0c0.3,0.1,0.4,0.4,0.4,0.7
		c-0.1,1.5-0.7,2.9-1.7,4c-1,1.2-2.2,2-3.7,2.5C10.6,15.6,9.6,15.8,8.7,15.8z M6.5,2.1c-0.7,0.2-1.4,0.6-2,1c-1,0.7-1.8,1.7-2.2,2.8
		C2,7,1.9,8.2,2.2,9.3c0.3,1.2,0.9,2.2,1.8,3.1c0.9,0.8,2,1.4,3.3,1.7c1.3,0.3,2.5,0.2,3.8-0.2c1.2-0.4,2.2-1.1,3-2.1
		c0.4-0.5,0.8-1.1,1-1.8c-0.9,0.3-1.9,0.5-2.8,0.4c-1.6-0.1-3-0.7-4.1-1.8C6.9,7.6,6.3,6.2,6.1,4.7C6.1,3.8,6.2,2.9,6.5,2.1z"/>
</g>
</svg>
