<svg width="35" height="49" viewBox="0 0 35 49" fill="none" xmlns="http://www.w3.org/2000/svg">
<path d="M2.03348 0.00251202C2.46068 0.000728109 2.87698 0.135711 3.22166 0.388107L33.386 22.2854C33.6448 22.473 33.8557 22.7187 34.0014 23.0032C34.1472 23.2877 34.224 23.6029 34.225 23.9226C34.2232 24.2414 34.1474 24.5554 34.0039 24.8401C33.8605 25.1248 33.6524 25.3724 33.3973 25.5636L3.23548 47.6674C2.93251 47.8891 2.57466 48.0224 2.20053 48.053C1.8264 48.0836 1.45154 48.0102 1.11659 47.8408C0.781645 47.6713 0.499677 47.4124 0.302698 47.0928C0.10572 46.7733 0.000914772 46.4056 0 46.0302V2.02971C0.000681654 1.4912 0.215581 0.974633 0.596604 0.594092C0.977627 0.213552 1.49372 -4.31425e-07 2.03222 0L2.03348 0.00251202ZM28.7438 23.9364L4.06193 6.01126V42.033L28.7438 23.9364Z" fill="white"/>
</svg>
