<?xml version="1.0" encoding="utf-8"?>
<!-- Generator: Adobe Illustrator 25.4.1, SVG Export Plug-In . SVG Version: 6.00 Build 0)  -->
<svg version="1.1" id="Capa_1" xmlns="http://www.w3.org/2000/svg" xmlns:xlink="http://www.w3.org/1999/xlink" x="0px" y="0px"
	 viewBox="0 0 19 29" style="enable-background:new 0 0 19 29;" xml:space="preserve">
<style type="text/css">
	.st0{fill:#20334E;}
</style>
<g>
	<path class="st0" d="M12.6,28.5H6.9v-3.3C3.4,24.3,1.2,22.1,1,19l0-0.5h4.5l0,0.5c0.2,1.8,1.6,2.7,4.2,2.7c3.5,0,3.8-1.7,3.8-2.2
		c0-1.1-0.5-2.3-4.4-3.1C5.8,15.6,1.3,14,1.3,9.7c0-2.8,2.1-5,5.5-5.8V0.5h5.7v3.4c1.3,0.3,2.6,1.1,3.5,2.1c1,1.1,1.6,2.6,1.6,4
		l0,0.5h-4.5l0-0.5c-0.1-1.1-0.5-2.7-3.5-2.7C7.4,7.4,6,8.2,6,9.6c0,1,0.7,1.8,4.4,2.7l0,0c3.9,1,7.8,2.5,7.8,7.1c0,2.9-2,5-5.5,5.7
		V28.5z M7.9,27.5h3.7v-3.1l0.4-0.1c1.5-0.3,5.1-1.3,5.1-4.8c0-3.8-3.4-5.2-7.1-6.1l0,0C7,12.6,5,11.7,5,9.6c0-2,1.9-3.3,4.8-3.3
		c3.2,0,4.2,1.6,4.4,3.1h2.5c-0.1-1.1-0.6-2.1-1.3-2.9c-0.8-1-2-1.6-3.3-1.9l-0.4-0.1V1.5H7.9v3.1L7.5,4.7C5,5.2,2.3,6.8,2.3,9.7
		c0,2.8,2.2,4.6,7.1,5.7c3.6,0.8,5.1,2.1,5.1,4.1c0,0.5-0.2,3.2-4.8,3.2c-3.8,0-4.9-1.8-5.1-3.2H2.1C2.6,22.9,6,24,7.4,24.3l0.4,0.1
		V27.5z"/>
</g>
</svg>
