<?xml version="1.0" encoding="utf-8"?>
<!-- Generator: Adobe Illustrator 25.4.1, SVG Export Plug-In . SVG Version: 6.00 Build 0)  -->
<svg version="1.1" id="Capa_1" xmlns="http://www.w3.org/2000/svg" xmlns:xlink="http://www.w3.org/1999/xlink" x="0px" y="0px"
	 viewBox="0 0 16 16" style="enable-background:new 0 0 16 16;" xml:space="preserve">
<style type="text/css">
	.st0{fill:#FF742B;}
</style>
<g>
	<path class="st0" d="M6,14c-1.5,0-2.9-0.4-4.2-1.2c-0.6-0.4-0.8-1-0.7-1.7C1.2,10.4,1.8,10,2.5,10h0.1C2.5,9.8,2.4,9.6,2.3,9.5
		C2.3,9.3,2.3,9.2,2.3,9C1.7,8.4,1.5,7.6,1.5,6.7c0-0.2,0-0.4,0.1-0.6c-0.1-0.3-0.1-0.7-0.1-1c0-0.8,0.2-1.5,0.6-2
		c0.3-0.4,0.7-0.6,1.2-0.6c0.5,0,0.9,0.2,1.2,0.5C5,3.7,5.7,4.2,6.5,4.5C7.1,3,8.5,2,10.1,2c0.7,0,1.4,0.2,2,0.5
		c0.1,0,0.2-0.1,0.3-0.2c0.5-0.3,1.2-0.3,1.7,0.1c0.4,0.3,0.6,0.7,0.6,1.1c0.4,0.5,0.4,1.2,0.1,1.8c-0.2,0.4-0.5,0.7-0.9,1
		C13.7,10.2,10.8,14,6,14z M2.5,11.5c1.1,0.7,2.3,1,3.5,1c4.4,0,6.4-3.8,6.4-6.4c0-0.2,0.1-0.4,0.2-0.6c0.3-0.3,0.6-0.6,0.9-1
		c-0.3-0.2-0.4-0.5-0.3-0.9c-0.4,0.2-0.7,0.4-1,0.5c-0.2,0.1-0.5,0-0.7-0.1c-0.4-0.3-0.9-0.5-1.4-0.5C8.9,3.5,8,4.4,7.9,5.6
		c0,0.2-0.1,0.4-0.3,0.5C7.4,6.2,7.2,6.3,7,6.2C5.5,5.9,4.2,5.1,3.3,4C3.1,4.3,3,4.6,3,5.1C3,5.4,3,5.7,3.1,5.9
		C3.3,6.2,3.2,6.5,3,6.7C3,7.5,3.3,8,3.6,8.3c0.2,0.2,0.2,0.4,0.2,0.7C3.9,9.4,4.2,9.7,4.5,10c0.2,0.2,0.3,0.5,0.2,0.7
		c-0.1,0.3-0.3,0.5-0.5,0.6c-0.4,0.1-0.8,0.2-1.2,0.2H2.5z"/>
</g>
</svg>
