<svg width="16" height="16" viewBox="0 0 16 16" fill="none" xmlns="http://www.w3.org/2000/svg">
<path d="M7.99992 2.6665C7.99992 2.6665 3.83028 2.66648 2.79028 2.94515C2.21628 3.09848 1.76523 3.5502 1.6119 4.12354C1.33323 5.16353 1.33325 7.99984 1.33325 7.99984C1.33325 7.99984 1.33323 10.8361 1.6119 11.8761C1.76523 12.4501 2.21695 12.9012 2.79028 13.0545C3.83028 13.3332 7.99992 13.3332 7.99992 13.3332C7.99992 13.3332 12.1696 13.3332 13.2096 13.0545C13.7829 12.9012 14.2346 12.4495 14.3879 11.8761C14.6666 10.8361 14.6666 7.99984 14.6666 7.99984C14.6666 7.99984 14.6666 5.16353 14.3879 4.12354C14.2346 3.5502 13.7829 3.09848 13.2096 2.94515C12.1696 2.66648 7.99992 2.6665 7.99992 2.6665ZM7.99992 3.99984C9.92125 3.99984 12.3272 4.08891 12.8645 4.23291C12.9772 4.26291 13.0695 4.35525 13.1002 4.46859C13.2608 5.06725 13.3333 6.8945 13.3333 7.99984C13.3333 9.10517 13.2608 10.9318 13.1002 11.5311C13.0702 11.6438 12.9778 11.7361 12.8645 11.7668C12.3278 11.9108 9.92125 11.9998 7.99992 11.9998C6.07925 11.9998 3.67334 11.9108 3.13534 11.7668C3.02267 11.7368 2.93032 11.6444 2.89966 11.5311C2.73899 10.9324 2.66659 9.10517 2.66659 7.99984C2.66659 6.8945 2.73899 5.06729 2.89966 4.46729C2.92966 4.35529 3.022 4.26291 3.13534 4.23291C3.672 4.08891 6.07859 3.99984 7.99992 3.99984ZM6.66659 5.68994V10.3097L10.6666 7.99984L6.66659 5.68994Z" fill="#FF742B"/>
</svg>
